<svg xmlns="http://www.w3.org/2000/svg" viewBox="1310.750 11.750 52 52"><defs><clipPath id="clip4_557_3001">
<rect width="37" height="22" fill="white" transform="translate(1318 26)"></rect>
</clipPath></defs><g clip-path="url(#clip4_557_3001)">
<path d="M1328.43 33.9894C1328.43 34.4462 1328.48 34.8094 1328.56 35.0788C1328.66 35.3482 1328.78 35.6411 1328.96 35.9574C1329.02 36.0511 1329.04 36.1565 1329.04 36.2386C1329.04 36.3557 1328.97 36.4846 1328.81 36.6017L1328.04 37.1171C1327.92 37.1991 1327.82 37.2343 1327.71 37.2343C1327.59 37.2343 1327.46 37.1757 1327.34 37.0586C1327.17 36.8829 1327.03 36.6837 1326.9 36.4846C1326.78 36.2737 1326.65 36.0394 1326.52 35.7583C1325.56 36.8946 1324.35 37.4569 1322.9 37.4569C1321.86 37.4569 1321.04 37.164 1320.44 36.5783C1319.84 35.9925 1319.53 35.196 1319.53 34.2236C1319.53 33.181 1319.9 32.3376 1320.65 31.705C1321.41 31.0724 1322.4 30.7561 1323.67 30.7561C1324.09 30.7561 1324.52 30.7913 1324.98 30.8498C1325.42 30.9084 1325.89 31.0021 1326.39 31.1193V30.2173C1326.39 29.2918 1326.19 28.6358 1325.81 28.2609C1325.42 27.886 1324.75 27.6986 1323.81 27.6986C1323.37 27.6986 1322.94 27.7455 1322.48 27.8626C1322.02 27.9798 1321.57 28.1086 1321.15 28.2726C1320.95 28.3663 1320.79 28.4132 1320.71 28.4366C1320.63 28.4601 1320.57 28.4718 1320.51 28.4718C1320.33 28.4718 1320.25 28.3546 1320.25 28.0969V27.4878C1320.25 27.2886 1320.27 27.148 1320.33 27.0543C1320.39 26.9723 1320.51 26.8786 1320.67 26.7966C1321.12 26.5857 1321.63 26.3983 1322.24 26.2577C1322.84 26.0937 1323.48 26.0234 1324.16 26.0234C1325.62 26.0234 1326.7 26.3514 1327.39 27.0192C1328.06 27.6752 1328.42 28.6826 1328.42 30.0298V33.9894H1328.43ZM1323.43 35.852C1323.83 35.852 1324.26 35.7817 1324.7 35.6294C1325.14 35.4771 1325.54 35.2077 1325.87 34.8445C1326.07 34.6102 1326.21 34.3525 1326.3 34.0596C1326.37 33.7668 1326.41 33.4153 1326.41 32.9936V32.4899C1326.05 32.3962 1325.67 32.3259 1325.28 32.279C1324.88 32.2322 1324.5 32.2087 1324.12 32.2087C1323.29 32.2087 1322.69 32.3727 1322.28 32.7007C1321.86 33.0288 1321.68 33.4973 1321.68 34.1065C1321.68 34.6805 1321.83 35.114 1322.14 35.4068C1322.43 35.6997 1322.87 35.852 1323.43 35.852ZM1333.32 37.1757C1333.09 37.1757 1332.95 37.1406 1332.85 37.0586C1332.75 36.9883 1332.66 36.8126 1332.59 36.5783L1329.7 27.1129C1329.62 26.8669 1329.58 26.7146 1329.58 26.6209C1329.58 26.4217 1329.68 26.3163 1329.88 26.3163H1331.08C1331.32 26.3163 1331.47 26.3514 1331.56 26.4334C1331.66 26.5037 1331.74 26.6794 1331.81 26.9137L1333.87 35.0085L1335.79 26.9137C1335.85 26.6677 1335.92 26.5154 1336.03 26.4334C1336.12 26.3632 1336.3 26.3163 1336.52 26.3163H1337.51C1337.75 26.3163 1337.9 26.3514 1338.01 26.4334C1338.1 26.5037 1338.2 26.6794 1338.24 26.9137L1340.19 35.114L1342.32 26.9137C1342.39 26.6677 1342.49 26.5154 1342.57 26.4334C1342.66 26.3632 1342.83 26.3163 1343.05 26.3163H1344.19C1344.39 26.3163 1344.5 26.41 1344.5 26.6209C1344.5 26.6794 1344.49 26.738 1344.48 26.82C1344.47 26.8903 1344.44 26.9957 1344.39 27.1246L1341.43 36.5783C1341.35 36.8243 1341.26 36.9766 1341.17 37.0586C1341.07 37.1289 1340.91 37.1757 1340.69 37.1757H1339.63C1339.4 37.1757 1339.25 37.1406 1339.14 37.0586C1339.05 36.9766 1338.95 36.8126 1338.9 36.5666L1336.99 28.6709L1335.1 36.5548C1335.04 36.8009 1334.97 36.9531 1334.86 37.0469C1334.77 37.1289 1334.59 37.164 1334.37 37.164H1333.32V37.1757ZM1349.13 37.5037C1348.5 37.5037 1347.85 37.4334 1347.23 37.2811C1346.62 37.1289 1346.14 36.9766 1345.82 36.7891C1345.62 36.6837 1345.49 36.5548 1345.44 36.4494C1345.4 36.344 1345.37 36.2151 1345.37 36.1097V35.4771C1345.37 35.2194 1345.47 35.1022 1345.66 35.1022C1345.73 35.1022 1345.81 35.114 1345.88 35.1374C1345.95 35.1608 1346.07 35.2077 1346.19 35.2545C1346.61 35.442 1347.06 35.5825 1347.54 35.688C1348.04 35.7817 1348.52 35.8403 1349 35.8403C1349.78 35.8403 1350.38 35.7114 1350.79 35.442C1351.22 35.1725 1351.43 34.7859 1351.43 34.2822C1351.43 33.9425 1351.32 33.6613 1351.1 33.4271C1350.88 33.1928 1350.46 32.9819 1349.86 32.7945L1348.08 32.2439C1347.19 31.9627 1346.52 31.541 1346.12 30.9904C1345.71 30.4515 1345.5 29.8541 1345.5 29.2215C1345.5 28.7061 1345.61 28.2492 1345.83 27.8626C1346.06 27.476 1346.35 27.1246 1346.72 26.8552C1347.08 26.574 1347.51 26.3632 1348 26.2226C1348.47 26.0586 1348.99 26 1349.53 26C1349.8 26 1350.09 26.0117 1350.36 26.0469C1350.64 26.082 1350.9 26.1289 1351.16 26.1757C1351.41 26.2343 1351.64 26.2929 1351.87 26.3749C1352.09 26.4569 1352.25 26.5272 1352.38 26.5974C1352.56 26.6912 1352.68 26.7966 1352.75 26.902C1352.82 26.9957 1352.86 27.1363 1352.86 27.3003V27.8743C1352.86 28.1321 1352.76 28.2609 1352.57 28.2609C1352.48 28.2609 1352.31 28.2141 1352.1 28.1086C1351.39 27.7923 1350.62 27.6283 1349.73 27.6283C1349.03 27.6283 1348.47 27.7338 1348.09 27.9681C1347.72 28.2023 1347.52 28.5538 1347.52 29.0575C1347.52 29.3972 1347.64 29.6901 1347.88 29.9244C1348.13 30.1587 1348.59 30.393 1349.24 30.5921L1350.98 31.1427C1351.87 31.4239 1352.51 31.8104 1352.89 32.3142C1353.27 32.8179 1353.46 33.3919 1353.46 34.0245C1353.46 34.5517 1353.35 35.0319 1353.14 35.442C1352.91 35.8637 1352.62 36.2268 1352.24 36.5197C1351.87 36.8243 1351.41 37.0469 1350.88 37.1991C1350.33 37.41 1349.76 37.5037 1349.13 37.5037Z" fill="#252F3E"></path>
<path fill-rule="evenodd" clip-rule="evenodd" d="M1351.45 43.4434C1347.4 46.4189 1341.52 48.0003 1336.46 48.0003C1329.37 48.0003 1322.98 45.3997 1318.16 41.0653C1317.79 40.7256 1318.13 40.257 1318.59 40.5264C1323.81 43.5371 1330.24 45.3646 1336.9 45.3646C1341.39 45.3646 1346.33 44.4391 1350.86 42.5296C1351.55 42.2133 1352.12 42.9631 1351.45 43.4434Z" fill="#FF9900"></path>
<path fill-rule="evenodd" clip-rule="evenodd" d="M1353.14 41.5334C1352.62 40.8774 1349.72 41.2171 1348.4 41.3694C1348.01 41.4163 1347.94 41.0766 1348.31 40.8188C1350.62 39.2022 1354.42 39.6708 1354.87 40.2097C1355.32 40.7603 1354.75 44.5441 1352.58 46.3481C1352.25 46.6293 1351.94 46.477 1352.08 46.1138C1352.56 44.9189 1353.66 42.1894 1353.14 41.5334Z" fill="#FF9900"></path>
</g></svg>