<svg xmlns="http://www.w3.org/2000/svg" viewBox="1092.750 11.750 52 52"><defs><clipPath id="clip1_557_3001">
<rect width="27" height="33" fill="white" transform="translate(1105 20)"></rect>
</clipPath></defs><g clip-path="url(#clip1_557_3001)">
<path d="M1113.46 52.0512C1114.92 52.6243 1116.46 52.9405 1118.04 52.9899C1120.15 53.059 1122.25 52.6539 1124.16 51.7845C1121.96 50.9348 1119.93 49.6997 1118.19 48.1387C1117.07 49.8776 1115.42 51.2608 1113.46 52.0512Z" fill="#FF9100"></path>
<path d="M1118.19 48.1389C1114.25 44.6018 1111.86 39.4739 1112.07 33.8521C1112.08 33.6742 1112.09 33.4865 1112.1 33.3086C1110.35 32.864 1108.51 32.8838 1106.78 33.358C1105.69 35.2056 1105.09 37.2805 1105.01 39.4047C1104.81 45.0859 1108.34 50.0458 1113.46 52.0515C1115.41 51.261 1117.06 49.8877 1118.19 48.1389Z" fill="#FFC400"></path>
<path d="M1118.19 48.1388C1119.1 46.7161 1119.66 45.0463 1119.72 43.2481C1119.9 38.5155 1116.63 34.4448 1112.1 33.3086C1112.09 33.4864 1112.08 33.6742 1112.07 33.852C1111.86 39.4739 1114.25 44.6017 1118.19 48.1388Z" fill="#FF9100"></path>
<path d="M1119.22 20C1116.64 22.0057 1114.61 24.6635 1113.37 27.7066C1112.65 29.4949 1112.21 31.382 1112.09 33.2988C1116.62 34.435 1119.89 38.5057 1119.71 43.2383C1119.65 44.9772 1119.12 46.6569 1118.18 48.129C1119.92 49.7 1121.95 50.935 1124.15 51.7748C1128.63 49.7593 1131.81 45.4317 1131.99 40.3039C1132.11 36.9841 1130.8 34.0201 1128.94 31.5302C1126.99 28.9021 1119.22 20 1119.22 20Z" fill="#DD2C00"></path>
</g></svg>